<?xml version="1.0" encoding="iso-8859-1"?>
<!-- Generator: Adobe Illustrator 19.0.0, SVG Export Plug-In . SVG Version: 6.00 Build 0)  -->
<svg version="1.1" id="Layer_1" xmlns="http://www.w3.org/2000/svg" xmlns:xlink="http://www.w3.org/1999/xlink" x="0px" y="0px"
	 viewBox="0 0 490.579 490.579" style="enable-background:new 0 0 490.579 490.579;" xml:space="preserve">
<g id="XMLID_829_">
	<g id="XMLID_1033_">
		<rect x="153.919" y="321.884" style="fill:#BE1622;" width="153.358" height="30.672"/>
	</g>
	<g id="XMLID_1031_">
		<rect x="153.919" y="352.556" style="fill:#CA9E67;" width="153.358" height="138.022"/>
	</g>
	<g id="XMLID_1035_">
		<polygon style="fill:#D8737A;" points="261.27,390.895 230.599,406.231 199.926,390.895 199.926,306.548 261.27,306.548 		"/>
	</g>
	<g id="XMLID_828_">
		<polygon style="fill:#E5A2A7;" points="230.599,406.231 230.599,406.231 199.926,390.895 199.926,306.548 230.599,306.548 		"/>
	</g>
	<g id="XMLID_1034_">
		<path style="fill:#D5B185;" d="M184.591,490.578c0-25.409,20.598-46.007,46.007-46.007c25.409,0,46.007,20.598,46.007,46.007"/>
	</g>
	<g id="XMLID_1026_">
		<path style="fill:#7D5D33;" d="M77.24,260.541L77.24,260.541V68.843c0-33.879,27.464-61.343,61.343-61.343l0,0v191.698
			C138.583,233.077,111.119,260.541,77.24,260.541z"/>
	</g>
	<g id="XMLID_1032_">
		<path style="fill:#7D5D33;" d="M383.956,260.541L383.956,260.541V68.843c0-33.879-27.464-61.343-61.343-61.343l0,0v191.698
			C322.613,233.077,350.077,260.541,383.956,260.541z"/>
	</g>
	<g id="XMLID_1003_">
		<path style="fill:#CA9E67;" d="M230.599,314.216L230.599,314.216c-42.349,0-76.679-34.33-76.679-76.679V7.5h153.358v230.037
			C307.277,279.886,272.947,314.216,230.599,314.216z"/>
	</g>
	<g id="XMLID_1029_">
		<path style="fill:#D5B185;" d="M307.279,162.37c-6.768,3.915-14.625,6.156-23.006,6.156c-25.409,0-46.007-20.598-46.007-46.007
			s20.598-46.007,46.007-46.007c8.387,0,16.25,2.244,23.021,6.165"/>
	</g>
	<g id="XMLID_1030_">
		<path style="fill:#D5B185;" d="M153.935,162.37c6.768,3.915,14.625,6.156,23.006,6.156c25.409,0,46.007-20.598,46.007-46.007
			s-20.598-46.007-46.007-46.007c-8.387,0-16.25,2.244-23.021,6.165"/>
	</g>
	<g id="XMLID_1028_">
		<path style="fill:#D5B185;" d="M268.938,298.88c0-21.174-17.165-38.34-38.339-38.34c-21.174,0-38.339,17.165-38.339,38.34
			l30.672,15.336h15.336L268.938,298.88z"/>
	</g>
	<g id="XMLID_239_">
		<path style="fill:#1D1D1B;" d="M75.95,268.041h-7.5V62.465C68.45,28.021,96.472,0,130.915,0h7.5v205.576
			C138.415,240.02,110.394,268.041,75.95,268.041z M123.415,15.592C100.793,19.197,83.45,38.844,83.45,62.465v189.984
			c22.622-3.605,39.965-23.252,39.965-46.873C123.415,205.576,123.415,15.592,123.415,15.592z"/>
	</g>
	<g id="XMLID_243_">
		<path style="fill:#1D1D1B;" d="M391.456,268.041h-7.5c-34.443,0-62.465-28.021-62.465-62.465V0h7.5
			c34.443,0,62.465,28.021,62.465,62.465V268.041z M336.491,15.592v189.984c0,23.621,17.343,43.268,39.965,46.873V62.465
			C376.456,38.844,359.113,19.197,336.491,15.592z"/>
	</g>
	<g>
		<path style="fill:#1D1D1B;" d="M146.419,0v237.537c0,46.417,37.763,84.179,84.18,84.179c46.416,0,84.179-37.763,84.179-84.179V0
			H146.419z M299.777,237.537c0,35.611-27.049,65.015-61.68,68.766v-38.262h15.504v-15h-46.007v15h15.503v38.262
			c-34.63-3.751-61.679-33.155-61.679-68.766V15h138.358v222.537H299.777z"/>
		<rect x="176.923" y="115.019" style="fill:#1D1D1B;" width="38.34" height="15"/>
		<rect x="245.935" y="115.019" style="fill:#1D1D1B;" width="38.34" height="15"/>
		<rect x="192.259" y="128.355" style="fill:#1D1D1B;" width="15.336" height="17"/>
		<rect x="253.603" y="128.355" style="fill:#1D1D1B;" width="15.336" height="17"/>
	</g>
	<g id="XMLID_248_">
		<path style="fill:#1D1D1B;" d="M230.599,413.731c-21.048,0-38.171-17.123-38.171-38.171v-53.675h15v53.675
			c0,12.777,10.395,23.171,23.171,23.171c12.777,0,23.172-10.395,23.172-23.171v-53.675h15v53.675
			C268.77,396.608,251.646,413.731,230.599,413.731z"/>
	</g>
	<g id="XMLID_249_">
		<rect x="223.099" y="329.552" style="fill:#1D1D1B;" width="15" height="38.339"/>
	</g>
	<g id="XMLID_251_">
		<polygon style="fill:#1D1D1B;" points="184.591,360.056 146.419,360.056 146.419,314.384 184.591,314.384 184.591,329.384 
			161.419,329.384 161.419,345.056 184.591,345.056 		"/>
	</g>
	<g id="XMLID_242_">
		<polygon style="fill:#1D1D1B;" points="314.777,360.056 276.605,360.056 276.605,345.056 299.777,345.056 299.777,329.384 
			276.605,329.384 276.605,314.384 314.777,314.384 		"/>
	</g>
	<g id="XMLID_252_">
		<rect x="146.419" y="367.892" style="fill:#1D1D1B;" width="15" height="122.687"/>
	</g>
	<g id="XMLID_253_">
		<rect x="299.777" y="367.892" style="fill:#1D1D1B;" width="15" height="122.687"/>
	</g>
	<g id="XMLID_254_">
		<rect x="246.103" y="467.574" style="fill:#1D1D1B;" width="15" height="23.004"/>
	</g>
	<g id="XMLID_255_">
		<rect x="200.095" y="467.574" style="fill:#1D1D1B;" width="15" height="23.004"/>
	</g>
	<g id="XMLID_256_">
		<path style="fill:#1D1D1B;" d="M345.449,490.578h-15v-107.35c0-25.276,20.563-45.839,45.839-45.839s45.84,20.563,45.84,45.839h-15
			c0-17.005-13.835-30.839-30.84-30.839s-30.839,13.834-30.839,30.839V490.578z"/>
	</g>
</g>
<g>
</g>
<g>
</g>
<g>
</g>
<g>
</g>
<g>
</g>
<g>
</g>
<g>
</g>
<g>
</g>
<g>
</g>
<g>
</g>
<g>
</g>
<g>
</g>
<g>
</g>
<g>
</g>
<g>
</g>
</svg>
